<svg xmlns="http://www.w3.org/2000/svg" viewBox="0 0 1200 540" preserveAspectRatio="xMidYMid slice">
    <rect width="1200" height="540" fill="#0d0d0d"></rect>
    <rect x="40" y="80" width="30" height="30" fill="rgba(163,230,53,0.3833333333333333)" stroke="#1f1f1f"></rect><rect x="74" y="80" width="30" height="30" fill="rgba(163,230,53,0.13333333333333333)" stroke="#1f1f1f"></rect><rect x="108" y="80" width="30" height="30" fill="rgba(163,230,53,0.05)" stroke="#1f1f1f"></rect><rect x="142" y="80" width="30" height="30" fill="rgba(163,230,53,0.05)" stroke="#1f1f1f"></rect><rect x="176" y="80" width="30" height="30" fill="rgba(163,230,53,0.09166666666666667)" stroke="#1f1f1f"></rect><rect x="210" y="80" width="30" height="30" fill="rgba(163,230,53,0.3)" stroke="#1f1f1f"></rect><rect x="244" y="80" width="30" height="30" fill="rgba(163,230,53,0.175)" stroke="#1f1f1f"></rect><rect x="278" y="80" width="30" height="30" fill="rgba(163,230,53,0.175)" stroke="#1f1f1f"></rect><rect x="312" y="80" width="30" height="30" fill="rgba(163,230,53,0.3833333333333333)" stroke="#1f1f1f"></rect><rect x="346" y="80" width="30" height="30" fill="rgba(163,230,53,0.13333333333333333)" stroke="#1f1f1f"></rect><rect x="380" y="80" width="30" height="30" fill="rgba(163,230,53,0.3833333333333333)" stroke="#1f1f1f"></rect><rect x="414" y="80" width="30" height="30" fill="rgba(163,230,53,0.3)" stroke="#1f1f1f"></rect><rect x="448" y="80" width="30" height="30" fill="rgba(163,230,53,0.55)" stroke="#1f1f1f"></rect><rect x="482" y="80" width="30" height="30" fill="rgba(163,230,53,0.21666666666666667)" stroke="#1f1f1f"></rect><rect x="516" y="80" width="30" height="30" fill="rgba(163,230,53,0.21666666666666667)" stroke="#1f1f1f"></rect><rect x="550" y="80" width="30" height="30" fill="rgba(163,230,53,0.55)" stroke="#1f1f1f"></rect><rect x="40" y="114" width="30" height="30" fill="rgba(163,230,53,0.21666666666666667)" stroke="#1f1f1f"></rect><rect x="74" y="114" width="30" height="30" fill="rgba(163,230,53,0.05)" stroke="#1f1f1f"></rect><rect x="108" y="114" width="30" height="30" fill="rgba(163,230,53,0.175)" stroke="#1f1f1f"></rect><rect x="142" y="114" width="30" height="30" fill="rgba(163,230,53,0.09166666666666667)" stroke="#1f1f1f"></rect><rect x="176" y="114" width="30" height="30" fill="rgba(163,230,53,0.3)" stroke="#1f1f1f"></rect><rect x="210" y="114" width="30" height="30" fill="rgba(163,230,53,0.3)" stroke="#1f1f1f"></rect><rect x="244" y="114" width="30" height="30" fill="rgba(163,230,53,0.3833333333333333)" stroke="#1f1f1f"></rect><rect x="278" y="114" width="30" height="30" fill="rgba(163,230,53,0.13333333333333333)" stroke="#1f1f1f"></rect><rect x="312" y="114" width="30" height="30" fill="rgba(163,230,53,0.55)" stroke="#1f1f1f"></rect><rect x="346" y="114" width="30" height="30" fill="rgba(163,230,53,0.13333333333333333)" stroke="#1f1f1f"></rect><rect x="380" y="114" width="30" height="30" fill="rgba(163,230,53,0.05)" stroke="#1f1f1f"></rect><rect x="414" y="114" width="30" height="30" fill="rgba(163,230,53,0.05)" stroke="#1f1f1f"></rect><rect x="448" y="114" width="30" height="30" fill="rgba(163,230,53,0.3)" stroke="#1f1f1f"></rect><rect x="482" y="114" width="30" height="30" fill="rgba(163,230,53,0.05)" stroke="#1f1f1f"></rect><rect x="516" y="114" width="30" height="30" fill="rgba(163,230,53,0.21666666666666667)" stroke="#1f1f1f"></rect><rect x="550" y="114" width="30" height="30" fill="rgba(163,230,53,0.55)" stroke="#1f1f1f"></rect><rect x="600" y="80" width="30" height="30" fill="rgba(163,230,53,0.55)" stroke="#1f1f1f"></rect><rect x="634" y="80" width="30" height="30" fill="rgba(163,230,53,0.21666666666666667)" stroke="#1f1f1f"></rect><rect x="668" y="80" width="30" height="30" fill="rgba(163,230,53,0.09166666666666667)" stroke="#1f1f1f"></rect><rect x="702" y="80" width="30" height="30" fill="rgba(163,230,53,0.21666666666666667)" stroke="#1f1f1f"></rect><rect x="736" y="80" width="30" height="30" fill="rgba(163,230,53,0.55)" stroke="#1f1f1f"></rect><rect x="770" y="80" width="30" height="30" fill="rgba(163,230,53,0.175)" stroke="#1f1f1f"></rect><rect x="804" y="80" width="30" height="30" fill="rgba(163,230,53,0.05)" stroke="#1f1f1f"></rect><rect x="838" y="80" width="30" height="30" fill="rgba(163,230,53,0.21666666666666667)" stroke="#1f1f1f"></rect><rect x="872" y="80" width="30" height="30" fill="rgba(163,230,53,0.05)" stroke="#1f1f1f"></rect><rect x="906" y="80" width="30" height="30" fill="rgba(163,230,53,0.21666666666666667)" stroke="#1f1f1f"></rect><rect x="940" y="80" width="30" height="30" fill="rgba(163,230,53,0.3)" stroke="#1f1f1f"></rect><rect x="974" y="80" width="30" height="30" fill="rgba(163,230,53,0.21666666666666667)" stroke="#1f1f1f"></rect><rect x="1008" y="80" width="30" height="30" fill="rgba(163,230,53,0.05)" stroke="#1f1f1f"></rect><rect x="1042" y="80" width="30" height="30" fill="rgba(163,230,53,0.3833333333333333)" stroke="#1f1f1f"></rect><rect x="1076" y="80" width="30" height="30" fill="rgba(163,230,53,0.21666666666666667)" stroke="#1f1f1f"></rect><rect x="1110" y="80" width="30" height="30" fill="rgba(163,230,53,0.13333333333333333)" stroke="#1f1f1f"></rect><rect x="600" y="114" width="30" height="30" fill="rgba(163,230,53,0.13333333333333333)" stroke="#1f1f1f"></rect><rect x="634" y="114" width="30" height="30" fill="rgba(163,230,53,0.55)" stroke="#1f1f1f"></rect><rect x="668" y="114" width="30" height="30" fill="rgba(163,230,53,0.3)" stroke="#1f1f1f"></rect><rect x="702" y="114" width="30" height="30" fill="rgba(163,230,53,0.05)" stroke="#1f1f1f"></rect><rect x="736" y="114" width="30" height="30" fill="rgba(163,230,53,0.09166666666666667)" stroke="#1f1f1f"></rect><rect x="770" y="114" width="30" height="30" fill="rgba(163,230,53,0.3833333333333333)" stroke="#1f1f1f"></rect><rect x="804" y="114" width="30" height="30" fill="rgba(163,230,53,0.3833333333333333)" stroke="#1f1f1f"></rect><rect x="838" y="114" width="30" height="30" fill="rgba(163,230,53,0.05)" stroke="#1f1f1f"></rect><rect x="872" y="114" width="30" height="30" fill="rgba(163,230,53,0.05)" stroke="#1f1f1f"></rect><rect x="906" y="114" width="30" height="30" fill="rgba(163,230,53,0.21666666666666667)" stroke="#1f1f1f"></rect><rect x="940" y="114" width="30" height="30" fill="rgba(163,230,53,0.05)" stroke="#1f1f1f"></rect><rect x="974" y="114" width="30" height="30" fill="rgba(163,230,53,0.3833333333333333)" stroke="#1f1f1f"></rect><rect x="1008" y="114" width="30" height="30" fill="rgba(163,230,53,0.09166666666666667)" stroke="#1f1f1f"></rect><rect x="1042" y="114" width="30" height="30" fill="rgba(163,230,53,0.09166666666666667)" stroke="#1f1f1f"></rect><rect x="1076" y="114" width="30" height="30" fill="rgba(163,230,53,0.3)" stroke="#1f1f1f"></rect><rect x="1110" y="114" width="30" height="30" fill="rgba(163,230,53,0.05)" stroke="#1f1f1f"></rect><rect x="40" y="240" width="30" height="30" fill="rgba(163,230,53,0.3)" stroke="#1f1f1f"></rect><rect x="74" y="240" width="30" height="30" fill="rgba(163,230,53,0.09166666666666667)" stroke="#1f1f1f"></rect><rect x="108" y="240" width="30" height="30" fill="rgba(163,230,53,0.21666666666666667)" stroke="#1f1f1f"></rect><rect x="142" y="240" width="30" height="30" fill="rgba(163,230,53,0.05)" stroke="#1f1f1f"></rect><rect x="176" y="240" width="30" height="30" fill="rgba(163,230,53,0.05)" stroke="#1f1f1f"></rect><rect x="210" y="240" width="30" height="30" fill="rgba(163,230,53,0.3)" stroke="#1f1f1f"></rect><rect x="244" y="240" width="30" height="30" fill="rgba(163,230,53,0.175)" stroke="#1f1f1f"></rect><rect x="278" y="240" width="30" height="30" fill="rgba(163,230,53,0.175)" stroke="#1f1f1f"></rect><rect x="312" y="240" width="30" height="30" fill="rgba(163,230,53,0.09166666666666667)" stroke="#1f1f1f"></rect><rect x="346" y="240" width="30" height="30" fill="rgba(163,230,53,0.55)" stroke="#1f1f1f"></rect><rect x="380" y="240" width="30" height="30" fill="rgba(163,230,53,0.3833333333333333)" stroke="#1f1f1f"></rect><rect x="414" y="240" width="30" height="30" fill="rgba(163,230,53,0.05)" stroke="#1f1f1f"></rect><rect x="448" y="240" width="30" height="30" fill="rgba(163,230,53,0.3)" stroke="#1f1f1f"></rect><rect x="482" y="240" width="30" height="30" fill="rgba(163,230,53,0.21666666666666667)" stroke="#1f1f1f"></rect><rect x="516" y="240" width="30" height="30" fill="rgba(163,230,53,0.175)" stroke="#1f1f1f"></rect><rect x="550" y="240" width="30" height="30" fill="rgba(163,230,53,0.13333333333333333)" stroke="#1f1f1f"></rect><rect x="40" y="274" width="30" height="30" fill="rgba(163,230,53,0.175)" stroke="#1f1f1f"></rect><rect x="74" y="274" width="30" height="30" fill="rgba(163,230,53,0.09166666666666667)" stroke="#1f1f1f"></rect><rect x="108" y="274" width="30" height="30" fill="rgba(163,230,53,0.3)" stroke="#1f1f1f"></rect><rect x="142" y="274" width="30" height="30" fill="rgba(163,230,53,0.05)" stroke="#1f1f1f"></rect><rect x="176" y="274" width="30" height="30" fill="rgba(163,230,53,0.175)" stroke="#1f1f1f"></rect><rect x="210" y="274" width="30" height="30" fill="rgba(163,230,53,0.3833333333333333)" stroke="#1f1f1f"></rect><rect x="244" y="274" width="30" height="30" fill="rgba(163,230,53,0.13333333333333333)" stroke="#1f1f1f"></rect><rect x="278" y="274" width="30" height="30" fill="rgba(163,230,53,0.3833333333333333)" stroke="#1f1f1f"></rect><rect x="312" y="274" width="30" height="30" fill="rgba(163,230,53,0.21666666666666667)" stroke="#1f1f1f"></rect><rect x="346" y="274" width="30" height="30" fill="rgba(163,230,53,0.21666666666666667)" stroke="#1f1f1f"></rect><rect x="380" y="274" width="30" height="30" fill="rgba(163,230,53,0.09166666666666667)" stroke="#1f1f1f"></rect><rect x="414" y="274" width="30" height="30" fill="rgba(163,230,53,0.09166666666666667)" stroke="#1f1f1f"></rect><rect x="448" y="274" width="30" height="30" fill="rgba(163,230,53,0.09166666666666667)" stroke="#1f1f1f"></rect><rect x="482" y="274" width="30" height="30" fill="rgba(163,230,53,0.3833333333333333)" stroke="#1f1f1f"></rect><rect x="516" y="274" width="30" height="30" fill="rgba(163,230,53,0.13333333333333333)" stroke="#1f1f1f"></rect><rect x="550" y="274" width="30" height="30" fill="rgba(163,230,53,0.05)" stroke="#1f1f1f"></rect><rect x="600" y="240" width="30" height="30" fill="rgba(163,230,53,0.175)" stroke="#1f1f1f"></rect><rect x="634" y="240" width="30" height="30" fill="rgba(163,230,53,0.175)" stroke="#1f1f1f"></rect><rect x="668" y="240" width="30" height="30" fill="rgba(163,230,53,0.3833333333333333)" stroke="#1f1f1f"></rect><rect x="702" y="240" width="30" height="30" fill="rgba(163,230,53,0.175)" stroke="#1f1f1f"></rect><rect x="736" y="240" width="30" height="30" fill="rgba(163,230,53,0.3833333333333333)" stroke="#1f1f1f"></rect><rect x="770" y="240" width="30" height="30" fill="rgba(163,230,53,0.3)" stroke="#1f1f1f"></rect><rect x="804" y="240" width="30" height="30" fill="rgba(163,230,53,0.09166666666666667)" stroke="#1f1f1f"></rect><rect x="838" y="240" width="30" height="30" fill="rgba(163,230,53,0.05)" stroke="#1f1f1f"></rect><rect x="872" y="240" width="30" height="30" fill="rgba(163,230,53,0.05)" stroke="#1f1f1f"></rect><rect x="906" y="240" width="30" height="30" fill="rgba(163,230,53,0.05)" stroke="#1f1f1f"></rect><rect x="940" y="240" width="30" height="30" fill="rgba(163,230,53,0.55)" stroke="#1f1f1f"></rect><rect x="974" y="240" width="30" height="30" fill="rgba(163,230,53,0.09166666666666667)" stroke="#1f1f1f"></rect><rect x="1008" y="240" width="30" height="30" fill="rgba(163,230,53,0.09166666666666667)" stroke="#1f1f1f"></rect><rect x="1042" y="240" width="30" height="30" fill="rgba(163,230,53,0.13333333333333333)" stroke="#1f1f1f"></rect><rect x="1076" y="240" width="30" height="30" fill="rgba(163,230,53,0.3833333333333333)" stroke="#1f1f1f"></rect><rect x="1110" y="240" width="30" height="30" fill="rgba(163,230,53,0.05)" stroke="#1f1f1f"></rect><rect x="600" y="274" width="30" height="30" fill="rgba(163,230,53,0.175)" stroke="#1f1f1f"></rect><rect x="634" y="274" width="30" height="30" fill="rgba(163,230,53,0.55)" stroke="#1f1f1f"></rect><rect x="668" y="274" width="30" height="30" fill="rgba(163,230,53,0.21666666666666667)" stroke="#1f1f1f"></rect><rect x="702" y="274" width="30" height="30" fill="rgba(163,230,53,0.09166666666666667)" stroke="#1f1f1f"></rect><rect x="736" y="274" width="30" height="30" fill="rgba(163,230,53,0.13333333333333333)" stroke="#1f1f1f"></rect><rect x="770" y="274" width="30" height="30" fill="rgba(163,230,53,0.3833333333333333)" stroke="#1f1f1f"></rect><rect x="804" y="274" width="30" height="30" fill="rgba(163,230,53,0.05)" stroke="#1f1f1f"></rect><rect x="838" y="274" width="30" height="30" fill="rgba(163,230,53,0.09166666666666667)" stroke="#1f1f1f"></rect><rect x="872" y="274" width="30" height="30" fill="rgba(163,230,53,0.13333333333333333)" stroke="#1f1f1f"></rect><rect x="906" y="274" width="30" height="30" fill="rgba(163,230,53,0.21666666666666667)" stroke="#1f1f1f"></rect><rect x="940" y="274" width="30" height="30" fill="rgba(163,230,53,0.09166666666666667)" stroke="#1f1f1f"></rect><rect x="974" y="274" width="30" height="30" fill="rgba(163,230,53,0.3833333333333333)" stroke="#1f1f1f"></rect><rect x="1008" y="274" width="30" height="30" fill="rgba(163,230,53,0.09166666666666667)" stroke="#1f1f1f"></rect><rect x="1042" y="274" width="30" height="30" fill="rgba(163,230,53,0.09166666666666667)" stroke="#1f1f1f"></rect><rect x="1076" y="274" width="30" height="30" fill="rgba(163,230,53,0.05)" stroke="#1f1f1f"></rect><rect x="1110" y="274" width="30" height="30" fill="rgba(163,230,53,0.55)" stroke="#1f1f1f"></rect><rect x="40" y="400" width="30" height="30" fill="rgba(163,230,53,0.13333333333333333)" stroke="#1f1f1f"></rect><rect x="74" y="400" width="30" height="30" fill="rgba(163,230,53,0.21666666666666667)" stroke="#1f1f1f"></rect><rect x="108" y="400" width="30" height="30" fill="rgba(163,230,53,0.09166666666666667)" stroke="#1f1f1f"></rect><rect x="142" y="400" width="30" height="30" fill="rgba(163,230,53,0.55)" stroke="#1f1f1f"></rect><rect x="176" y="400" width="30" height="30" fill="rgba(163,230,53,0.09166666666666667)" stroke="#1f1f1f"></rect><rect x="210" y="400" width="30" height="30" fill="rgba(163,230,53,0.13333333333333333)" stroke="#1f1f1f"></rect><rect x="244" y="400" width="30" height="30" fill="rgba(163,230,53,0.3833333333333333)" stroke="#1f1f1f"></rect><rect x="278" y="400" width="30" height="30" fill="rgba(163,230,53,0.55)" stroke="#1f1f1f"></rect><rect x="312" y="400" width="30" height="30" fill="rgba(163,230,53,0.175)" stroke="#1f1f1f"></rect><rect x="346" y="400" width="30" height="30" fill="rgba(163,230,53,0.13333333333333333)" stroke="#1f1f1f"></rect><rect x="380" y="400" width="30" height="30" fill="rgba(163,230,53,0.3833333333333333)" stroke="#1f1f1f"></rect><rect x="414" y="400" width="30" height="30" fill="rgba(163,230,53,0.13333333333333333)" stroke="#1f1f1f"></rect><rect x="448" y="400" width="30" height="30" fill="rgba(163,230,53,0.55)" stroke="#1f1f1f"></rect><rect x="482" y="400" width="30" height="30" fill="rgba(163,230,53,0.55)" stroke="#1f1f1f"></rect><rect x="516" y="400" width="30" height="30" fill="rgba(163,230,53,0.21666666666666667)" stroke="#1f1f1f"></rect><rect x="550" y="400" width="30" height="30" fill="rgba(163,230,53,0.3833333333333333)" stroke="#1f1f1f"></rect><rect x="40" y="434" width="30" height="30" fill="rgba(163,230,53,0.05)" stroke="#1f1f1f"></rect><rect x="74" y="434" width="30" height="30" fill="rgba(163,230,53,0.05)" stroke="#1f1f1f"></rect><rect x="108" y="434" width="30" height="30" fill="rgba(163,230,53,0.13333333333333333)" stroke="#1f1f1f"></rect><rect x="142" y="434" width="30" height="30" fill="rgba(163,230,53,0.3)" stroke="#1f1f1f"></rect><rect x="176" y="434" width="30" height="30" fill="rgba(163,230,53,0.55)" stroke="#1f1f1f"></rect><rect x="210" y="434" width="30" height="30" fill="rgba(163,230,53,0.09166666666666667)" stroke="#1f1f1f"></rect><rect x="244" y="434" width="30" height="30" fill="rgba(163,230,53,0.3833333333333333)" stroke="#1f1f1f"></rect><rect x="278" y="434" width="30" height="30" fill="rgba(163,230,53,0.13333333333333333)" stroke="#1f1f1f"></rect><rect x="312" y="434" width="30" height="30" fill="rgba(163,230,53,0.55)" stroke="#1f1f1f"></rect><rect x="346" y="434" width="30" height="30" fill="rgba(163,230,53,0.09166666666666667)" stroke="#1f1f1f"></rect><rect x="380" y="434" width="30" height="30" fill="rgba(163,230,53,0.3833333333333333)" stroke="#1f1f1f"></rect><rect x="414" y="434" width="30" height="30" fill="rgba(163,230,53,0.09166666666666667)" stroke="#1f1f1f"></rect><rect x="448" y="434" width="30" height="30" fill="rgba(163,230,53,0.09166666666666667)" stroke="#1f1f1f"></rect><rect x="482" y="434" width="30" height="30" fill="rgba(163,230,53,0.175)" stroke="#1f1f1f"></rect><rect x="516" y="434" width="30" height="30" fill="rgba(163,230,53,0.3)" stroke="#1f1f1f"></rect><rect x="550" y="434" width="30" height="30" fill="rgba(163,230,53,0.05)" stroke="#1f1f1f"></rect><rect x="600" y="400" width="30" height="30" fill="rgba(163,230,53,0.3)" stroke="#1f1f1f"></rect><rect x="634" y="400" width="30" height="30" fill="rgba(163,230,53,0.13333333333333333)" stroke="#1f1f1f"></rect><rect x="668" y="400" width="30" height="30" fill="rgba(163,230,53,0.21666666666666667)" stroke="#1f1f1f"></rect><rect x="702" y="400" width="30" height="30" fill="rgba(163,230,53,0.09166666666666667)" stroke="#1f1f1f"></rect><rect x="736" y="400" width="30" height="30" fill="rgba(163,230,53,0.175)" stroke="#1f1f1f"></rect><rect x="770" y="400" width="30" height="30" fill="rgba(163,230,53,0.05)" stroke="#1f1f1f"></rect><rect x="804" y="400" width="30" height="30" fill="rgba(163,230,53,0.09166666666666667)" stroke="#1f1f1f"></rect><rect x="838" y="400" width="30" height="30" fill="rgba(163,230,53,0.21666666666666667)" stroke="#1f1f1f"></rect><rect x="872" y="400" width="30" height="30" fill="rgba(163,230,53,0.3)" stroke="#1f1f1f"></rect><rect x="906" y="400" width="30" height="30" fill="rgba(163,230,53,0.3833333333333333)" stroke="#1f1f1f"></rect><rect x="940" y="400" width="30" height="30" fill="rgba(163,230,53,0.175)" stroke="#1f1f1f"></rect><rect x="974" y="400" width="30" height="30" fill="rgba(163,230,53,0.55)" stroke="#1f1f1f"></rect><rect x="1008" y="400" width="30" height="30" fill="rgba(163,230,53,0.3833333333333333)" stroke="#1f1f1f"></rect><rect x="1042" y="400" width="30" height="30" fill="rgba(163,230,53,0.3)" stroke="#1f1f1f"></rect><rect x="1076" y="400" width="30" height="30" fill="rgba(163,230,53,0.13333333333333333)" stroke="#1f1f1f"></rect><rect x="1110" y="400" width="30" height="30" fill="rgba(163,230,53,0.3)" stroke="#1f1f1f"></rect><rect x="600" y="434" width="30" height="30" fill="rgba(163,230,53,0.05)" stroke="#1f1f1f"></rect><rect x="634" y="434" width="30" height="30" fill="rgba(163,230,53,0.05)" stroke="#1f1f1f"></rect><rect x="668" y="434" width="30" height="30" fill="rgba(163,230,53,0.3)" stroke="#1f1f1f"></rect><rect x="702" y="434" width="30" height="30" fill="rgba(163,230,53,0.09166666666666667)" stroke="#1f1f1f"></rect><rect x="736" y="434" width="30" height="30" fill="rgba(163,230,53,0.175)" stroke="#1f1f1f"></rect><rect x="770" y="434" width="30" height="30" fill="rgba(163,230,53,0.09166666666666667)" stroke="#1f1f1f"></rect><rect x="804" y="434" width="30" height="30" fill="rgba(163,230,53,0.21666666666666667)" stroke="#1f1f1f"></rect><rect x="838" y="434" width="30" height="30" fill="rgba(163,230,53,0.05)" stroke="#1f1f1f"></rect><rect x="872" y="434" width="30" height="30" fill="rgba(163,230,53,0.05)" stroke="#1f1f1f"></rect><rect x="906" y="434" width="30" height="30" fill="rgba(163,230,53,0.09166666666666667)" stroke="#1f1f1f"></rect><rect x="940" y="434" width="30" height="30" fill="rgba(163,230,53,0.13333333333333333)" stroke="#1f1f1f"></rect><rect x="974" y="434" width="30" height="30" fill="rgba(163,230,53,0.175)" stroke="#1f1f1f"></rect><rect x="1008" y="434" width="30" height="30" fill="rgba(163,230,53,0.13333333333333333)" stroke="#1f1f1f"></rect><rect x="1042" y="434" width="30" height="30" fill="rgba(163,230,53,0.21666666666666667)" stroke="#1f1f1f"></rect><rect x="1076" y="434" width="30" height="30" fill="rgba(163,230,53,0.55)" stroke="#1f1f1f"></rect><rect x="1110" y="434" width="30" height="30" fill="rgba(163,230,53,0.175)" stroke="#1f1f1f"></rect>
    <text x="40" y="50" font-family="JetBrains Mono, monospace" font-size="13" fill="#6a6a66" letter-spacing="1">MXFP4 · BLOCK=32 · E2M1</text>
    <text x="40" y="520" font-family="JetBrains Mono, monospace" font-size="11" fill="#6a6a66">fig. 01 — microscaling block layout, per 32 elements share one UE8M0 scale</text>
  </svg>