<svg xmlns="http://www.w3.org/2000/svg" viewBox="0 0 1200 540" preserveAspectRatio="xMidYMid slice">
    <rect width="1200" height="540" fill="#0d0d0d"></rect>
    <text x="80" y="50" font-family="JetBrains Mono, monospace" font-size="13" fill="#6a6a66" letter-spacing="1">TRAINING LOSS · STEP 0 → 1.2M</text>

    
    <line x1="80" y1="120" x2="1140" y2="120" stroke="#1a1a1a" stroke-dasharray="2 4"></line><line x1="80" y1="190" x2="1140" y2="190" stroke="#1a1a1a" stroke-dasharray="2 4"></line><line x1="80" y1="260" x2="1140" y2="260" stroke="#1a1a1a" stroke-dasharray="2 4"></line><line x1="80" y1="330" x2="1140" y2="330" stroke="#1a1a1a" stroke-dasharray="2 4"></line><line x1="80" y1="400" x2="1140" y2="400" stroke="#1a1a1a" stroke-dasharray="2 4"></line>
    <line x1="80" y1="120" x2="80" y2="420" stroke="#1a1a1a" stroke-dasharray="2 4"></line><line x1="260" y1="120" x2="260" y2="420" stroke="#1a1a1a" stroke-dasharray="2 4"></line><line x1="440" y1="120" x2="440" y2="420" stroke="#1a1a1a" stroke-dasharray="2 4"></line><line x1="620" y1="120" x2="620" y2="420" stroke="#1a1a1a" stroke-dasharray="2 4"></line><line x1="800" y1="120" x2="800" y2="420" stroke="#1a1a1a" stroke-dasharray="2 4"></line><line x1="980" y1="120" x2="980" y2="420" stroke="#1a1a1a" stroke-dasharray="2 4"></line><line x1="1160" y1="120" x2="1160" y2="420" stroke="#1a1a1a" stroke-dasharray="2 4"></line>

    
    <polyline points="80,183.88209894146675 88.8,183.59948162341811 97.6,188.44508470465354 106.4,195.627842580238 115.2,200.47905406181275 124,202.01124295887018 132.8,210.9563894706916 141.60000000000002,214.92355475508592 150.4,221.55948286828504 159.2,223.29355026853221 168,231.18640366329166 176.8,234.16710944162023 185.60000000000002,236.0565998157147 194.4,242.578280170131 203.20000000000002,242.5999909097893 212,251.19743548253794 220.8,255.14897247314696 229.60000000000002,254.4615920797738 238.4,260.56020573044793 247.20000000000002,260.99741066225454 256,268.13333937907316 264.8,271.03987837274235 273.6,269.7730548555146 282.4,273.1700488679131 291.20000000000005,279.1905863665983 300,281.52114647749147 308.8,287.2503270310529 317.6,288.3114706754951 326.40000000000003,292.83756451691204 335.20000000000005,292.5479041369945 344,293.20085699838876 352.8,300.02587245098096 361.6,299.2009537622598 370.40000000000003,305.37725339681157 379.20000000000005,305.72999978706105 388,309.2436658078201 396.8,311.55421951519645 405.6,311.47319695821767 414.40000000000003,318.08359396890455 423.20000000000005,316.9887517323537 432,319.2556166039996 440.8,318.04979714392874 449.6,319.33571790492556 458.40000000000003,325.6175713038645 467.20000000000005,329.35004107433537 476.00000000000006,331.09296953242807 484.8,331.9357681599738 493.6,335.24040184638096 502.40000000000003,333.4715399122095 511.20000000000005,335.02151847707773 520,340.0450604901788 528.8,341.91422745488785 537.6,339.54157252488363 546.4000000000001,341.13118852503044 555.2,343.5585395315396 564,344.87408604728984 572.8000000000001,344.62191281849005 581.6,349.3392300957214 590.4000000000001,344.9635336816175 599.2,349.60144581767815 608,347.59461743804485 616.8000000000001,349.3137777979048 625.6,351.92287956140933 634.4000000000001,351.4562794821154 643.2,353.0696882065778 652,359.0421356535717 660.8000000000001,353.8807915210709 669.6,356.90097269725715 678.4000000000001,357.9823570267303 687.2,357.1904688420146 696,361.29973720240235 704.8000000000001,364.66799802571023 713.6,360.18694151802123 722.4000000000001,360.77648901534997 731.2,365.96107523094685 740,365.47382053371047 748.8000000000001,370.6544961267013 757.6,365.89659075103873 766.4000000000001,369.40272025922735 775.2,370.3210719254855 784,372.7654982947695 792.8000000000001,371.3505009639336 801.6,373.5760424953377 810.4000000000001,368.8641492790419 819.2,376.27893139946406 828.0000000000001,373.9044819328714 836.8000000000001,377.61575352797604 845.6,375.97616253441265 854.4000000000001,377.31582720598067 863.2,376.89334885129074 872.0000000000001,375.028246166979 880.8000000000001,378.7274373792938 889.6,374.8307372122195 898.4000000000001,379.1293879620397 907.2,380.8083911253794 916.0000000000001,381.3739759186173 924.8000000000001,378.93450812256924 933.6,379.83285205958015 942.4000000000001,382.4987773347044 951.2,377.66813810543175 960.0000000000001,379.9947910337535 968.8000000000001,383.43106988049055 977.6,381.448726057428 986.4000000000001,379.9912222405192 995.2,381.3622085111547 1004.0000000000001,384.7806229784685 1012.8000000000001,385.8531101674206 1021.6,381.65703658007396 1030.4,389.0624201662584 1039.2,384.4730052983944 1048,385.865997844385 1056.8000000000002,384.60349232524254 1065.6000000000001,383.58340279899164 1074.4,385.5885448347978 1083.2,387.69241673112657 1092,386.63942102251355 1100.8000000000002,384.48463403066864 1109.6000000000001,390.3871615351325 1118.4,385.4177517380681 1127.2,389.8376032008048 1136,387.22722602784035" fill="none" stroke="#555" stroke-width="1.5"></polyline>
    
    <polyline points="80,202.52870794073047 88.8,209.4773715280505 97.6,215.38240564947552 106.4,207.48587491659057 115.2,211.4721975488184 124,213.9939521958003 132.8,215.7115693248129 141.60000000000002,220.96111408669654 150.4,240.6212951231261 159.2,235.49570334169448 168,242.8030032288783 176.8,243.5607059760612 185.60000000000002,252.26350103412102 194.4,257.15644884670826 203.20000000000002,251.24887052576977 212,265.8056276920434 220.8,252.44644406826168 229.60000000000002,258.38356122395265 238.4,274.6743968585343 247.20000000000002,266.5004078822457 256,265.45400021285514 264.8,281.4160216673878 273.6,280.34231583339863 282.4,280.5155687167745 291.20000000000005,273.5858136489308 300,275.4098786544373 308.8,291.7511108337797 317.6,292.4966452723723 326.40000000000003,297.37296590197457 335.20000000000005,297.32272993674684 344,287.30910246081294 352.8,308.73102456672757 361.6,303.2567677836964 370.40000000000003,306.58579157704673 379.20000000000005,313.807857496618 388,312.19888025725174 396.8,313.5971134001949 405.6,314.2406605010704 414.40000000000003,314.9078751179535 423.20000000000005,323.49224280827497 432,322.60574566658653 440.8,314.92499669789214 449.6,322.7105369875777 458.40000000000003,318.65189538961556 467.20000000000005,315.9719874212291 476.00000000000006,318.82146321862507 484.8,335.49147276843405 493.6,336.91538343620664 502.40000000000003,328.69747489388357 511.20000000000005,330.7185474294747 520,323.50634465125154 528.8,342.737754992761 537.6,335.3006541709841 546.4000000000001,332.46765538900695 555.2,342.89064855187274 564,344.51286653457265 572.8000000000001,351.2498927316051 581.6,345.7572277930195 590.4000000000001,347.19560882311254 599.2,343.80081324807014 608,337.7896535173752 616.8000000000001,339.44936631167565 625.6,352.6697849793397 634.4000000000001,340.4091341784822 643.2,348.56178189239085 652,344.90400867123634 660.8000000000001,353.04316838115807 669.6,346.34405068049693 678.4000000000001,362.1999355237705 687.2,347.5610379170496 696,353.9119026782698 704.8000000000001,354.5094566680269 713.6,366.4418637984626 722.4000000000001,366.4772662092823 731.2,359.18167379854617 740,353.9698373648827 748.8000000000001,359.8585855681604 757.6,357.93035576824053 766.4000000000001,372.68886040259514 775.2,365.0518787903412 784,370.83227300324984 792.8000000000001,362.03305571888285 801.6,361.7045837355084 810.4000000000001,363.59413399895084 819.2,370.3408207917136 828.0000000000001,360.54675915261004 836.8000000000001,369.60522009221023 845.6,371.2019705827657 854.4000000000001,373.1605790079434 863.2,362.1110808517015 872.0000000000001,373.2061142642624 880.8000000000001,363.08250167304584 889.6,365.99052732377055 898.4000000000001,376.97765420780075 907.2,378.4233214308655 916.0000000000001,373.34422748070165 924.8000000000001,383.60760967416365 933.6,381.5382761268692 942.4000000000001,381.91531805467486 951.2,368.58809673262385 960.0000000000001,383.24403746445944 968.8000000000001,388.309121787746 977.6,384.3411374909011 986.4000000000001,377.10871414887094 995.2,372.48054574341444 1004.0000000000001,387.0992633324359 1012.8000000000001,371.82155805825056 1021.6,390.28905449794877 1030.4,388.58079868581314 1039.2,387.35233601135786 1048,375.6435593100772 1056.8000000000002,379.59634385973385 1065.6000000000001,387.3325257801808 1074.4,376.7920371918038 1083.2,377.80797252586433 1092,381.802077217275 1100.8000000000002,380.0376250951377 1109.6000000000001,394.23321707939795 1118.4,390.64493782613806 1127.2,383.8768126901813 1136,377.98719492719545" fill="none" stroke="#a3e635" stroke-width="1.5"></polyline>

    
    <g transform="translate(900, 140)" font-family="JetBrains Mono, monospace" font-size="11">
      <rect width="200" height="66" fill="#0a0a0a" stroke="#1f1f1f"></rect>
      <line x1="14" y1="24" x2="40" y2="24" stroke="#555" stroke-width="1.5"></line>
      <text x="50" y="28" fill="#b8b8b3">BF16 baseline</text>
      <line x1="14" y1="48" x2="40" y2="48" stroke="#a3e635" stroke-width="1.5"></line>
      <text x="50" y="52" fill="#b8b8b3">MXFP4 QAT</text>
    </g>

    <text x="80" y="440" font-family="JetBrains Mono, monospace" font-size="10" fill="#6a6a66">0</text>
    <text x="1120" y="440" font-family="JetBrains Mono, monospace" font-size="10" fill="#6a6a66">1.2M</text>

    <text x="80" y="510" font-family="JetBrains Mono, monospace" font-size="11" fill="#6a6a66">fig. 03 — loss parity within ~2% at convergence; QAT absorbs the 4-bit noise</text>
  </svg>